HIERARCHY
ROOT hip
{
	OFFSET 0.000000 0.000000 0.000000 
	CHANNELS 6 Xposition Yposition Zposition Xrotation Zrotation Yrotation
	JOINT abdomen
	{
		OFFSET 0.000000 3.402643 0.000000 
		CHANNELS 3 Xrotation Zrotation Yrotation
		JOINT chest
		{
			OFFSET 0.000000 8.438565 -0.680529 
			CHANNELS 3 Xrotation Zrotation Yrotation
			JOINT neck
			{
				OFFSET 0.000000 10.207942 -0.272212 
				CHANNELS 3 Xrotation Zrotation Yrotation
				JOINT head
				{
					OFFSET 0.000000 3.130431 0.000000 
					CHANNELS 3 Xrotation Zrotation Yrotation
					End Site
					{
						OFFSET 0.000000 3.130435 0.000000 
					}
				}
			}
			JOINT lCollar
			{
				OFFSET 3.470700 6.669187 -0.816635 
				CHANNELS 3 Yrotation Zrotation Xrotation
				JOINT lShldr
				{
					OFFSET 3.198488 0.000000 0.000000 
					CHANNELS 3 Zrotation Yrotation Xrotation
					JOINT lForeArm
					{
						OFFSET 10.139888 0.000000 0.000000 
						CHANNELS 3 Yrotation Zrotation Xrotation
						JOINT lHand
						{
							OFFSET 8.370511 0.000000 0.000000 
							CHANNELS 3 Zrotation Yrotation Xrotation
							End Site
							{
								OFFSET 4.083176 0.000000 0.000000 
							}
						}
					}
				}
			}
			JOINT rCollar
			{
				OFFSET -3.470700 6.669187 -0.816635 
				CHANNELS 3 Yrotation Zrotation Xrotation
				JOINT rShldr
				{
					OFFSET -3.198488 0.000000 0.000000 
					CHANNELS 3 Zrotation Yrotation Xrotation
					JOINT rForeArm
					{
						OFFSET -10.139888 0.000000 0.000000 
						CHANNELS 3 Yrotation Zrotation Xrotation
						JOINT rHand
						{
							OFFSET -8.370511 0.000000 0.000000 
							CHANNELS 3 Zrotation Yrotation Xrotation
							End Site
							{
								OFFSET -4.083176 0.000000 0.000000 
							}
						}
					}
				}
			}
		}
	}
	JOINT lThigh
	{
		OFFSET 5.308129 -1.633274 1.361059 
		CHANNELS 3 Xrotation Zrotation Yrotation
		JOINT lShin
		{
			OFFSET -2.041588 -20.007561 0.000000 
			CHANNELS 3 Xrotation Zrotation Yrotation
			JOINT lFoot
			{
				OFFSET 0.000000 -19.190928 -1.224953 
				CHANNELS 3 Xrotation Yrotation Zrotation
				End Site
				{
					OFFSET 0.000000 -2.449906 4.627600 
				}
			}
		}
	}
	JOINT rThigh
	{
		OFFSET -5.308129 -1.633274 1.361059 
		CHANNELS 3 Xrotation Zrotation Yrotation
		JOINT rShin
		{
			OFFSET 2.041588 -20.007561 0.000000 
			CHANNELS 3 Xrotation Zrotation Yrotation
			JOINT rFoot
			{
				OFFSET 0.000000 -19.190928 -1.224953 
				CHANNELS 3 Xrotation Yrotation Zrotation
				End Site
				{
					OFFSET 0.000000 -2.449906 4.627600 
				}
			}
		}
	}
}
MOTION
Frames: 14
Frame Time: 0.016667
-11.597606 -58.573914 38.543354 -170.933899 -178.242188 -0.117432 30.553471 -2.893995 -0.126176 -1.247064 4.697212 0.313981 -31.059172 -4.972654 2.628221 -9.446358 -5.822076 -4.486383 25.476984 28.032938 1.577982 35.590134 -30.755535 -45.000000 -17.171745 5.000000 -45.000000 -24.172419 9.533333 20.433428 -25.922962 -30.000000 2.038769 -47.060558 27.765972 -45.000000 19.211014 -5.000000 -45.000000 9.086621 -30.000000 34.552715 12.928983 6.025464 10.455778 3.960111 -7.199420 -0.805363 11.217072 -1.059984 -11.900720 11.809835 -0.271479 14.228174 4.014845 4.531835 0.454334 -27.208904 -5.553464 1.547312 
-11.597406 -58.580425 38.536839 -170.925812 -178.125000 -0.058882 30.592447 -3.015760 -0.137911 -1.252821 4.658173 0.196221 -31.141418 -4.888830 2.595013 -9.417515 -5.753540 -4.534956 25.591736 28.110926 1.582009 35.636280 -30.753162 -45.000000 -17.138008 5.000000 -45.000000 -24.246775 9.616368 20.440115 -26.086321 -30.000000 2.024668 -47.254353 27.820192 -45.000000 19.153341 -5.000000 -45.000000 9.050278 -30.000000 34.619286 12.831291 5.976542 10.368727 3.997140 -7.189940 -0.857912 11.058973 -0.994179 -11.950929 11.790479 -0.408457 14.027797 4.108888 4.539035 0.480770 -27.309042 -5.296814 1.580559 
-11.597186 -58.586941 38.529671 -170.917969 -178.027344 0.000000 30.621706 -3.125276 -0.154623 -1.257721 4.609360 0.108518 -31.233133 -4.816142 2.554484 -9.378237 -5.694743 -4.583536 25.697020 28.179173 1.585531 35.694576 -30.757137 -45.000000 -17.104385 5.000000 -45.000000 -24.308683 9.676350 20.433369 -26.239031 -30.000000 2.017105 -47.419514 27.867943 -45.000000 19.090221 -5.000000 -45.000000 9.026984 -30.000000 34.671539 12.718278 5.936224 10.303864 4.048181 -7.183599 -0.901643 10.931324 -0.888050 -11.998721 11.794964 -0.526598 13.871739 4.164927 4.526832 0.524109 -27.437996 -5.033203 1.629268 
-11.596891 -58.593456 38.519897 -170.920349 -178.007813 0.068318 30.649521 -3.156215 -0.166369 -1.267537 4.589828 0.108515 -31.318064 -4.769403 2.536751 -9.320576 -5.743020 -4.633096 25.744621 28.218166 1.587542 35.780415 -30.764381 -45.000000 -17.065851 5.000000 -45.000000 -24.277752 9.702229 20.442984 -26.360346 -30.000000 2.006570 -47.478645 27.843010 -45.000000 19.032721 -5.000000 -45.000000 8.999350 -30.000000 34.724182 12.611294 5.965139 10.211374 4.086556 -7.173026 -0.905402 10.776847 -0.972404 -12.149639 11.765125 -0.536013 13.877854 4.228718 4.561358 0.510556 -27.614813 -4.994160 1.452428 
-11.596597 -58.599957 38.510132 -170.923096 -177.998047 0.146395 30.677252 -3.169241 -0.170450 -1.267588 4.570298 0.108512 -31.413208 -4.732309 2.521295 -9.262834 -5.791288 -4.682660 25.792219 28.257158 1.589553 35.875153 -30.756399 -45.000000 -17.027370 5.000000 -45.000000 -24.251442 9.715864 20.448130 -26.481636 -30.000000 2.001533 -47.534126 27.821409 -45.000000 18.969358 -5.000000 -45.000000 8.975548 -30.000000 34.792751 12.493514 6.013748 10.152390 4.124126 -7.151335 -0.928465 10.660986 -1.012311 -12.327132 11.755181 -0.575210 13.880822 4.275053 4.598047 0.533786 -27.758997 -4.909582 1.354274 
-11.601428 -58.603882 38.497601 -170.887421 -177.919937 0.234221 30.744417 -3.217078 -0.193605 -1.291878 4.521479 0.039559 -31.448931 -4.675922 2.502917 -9.278220 -5.781151 -4.731237 25.858728 28.315655 1.597200 35.919758 -30.810413 -45.000000 -17.021397 5.000000 -45.000000 -24.129564 9.702375 20.574675 -26.534960 -30.000000 1.990515 -47.638298 27.805592 -45.000000 18.926880 -5.000000 -45.000000 9.019882 -30.000000 34.811180 12.417463 5.985700 10.049026 4.107723 -7.127014 -0.896774 10.723032 -1.147215 -12.431043 11.796388 -0.653906 13.970189 4.265506 4.647089 0.524201 -28.208418 -4.974307 1.080978 
-11.607546 -58.607143 38.484367 -170.852417 -177.832062 0.332163 30.801483 -3.283720 -0.224456 -1.316828 4.482422 -0.028593 -31.454603 -4.621024 2.474127 -9.314795 -5.751546 -4.780796 25.934692 28.383896 1.600727 35.958447 -30.883144 -45.000000 -17.037249 5.000000 -45.000000 -23.997152 9.688672 20.731873 -26.589073 -30.000000 1.983960 -47.769291 27.779362 -45.000000 18.878489 -5.000000 -45.000000 9.073513 -30.000000 34.819748 12.358446 5.927095 9.940205 4.083033 -7.062256 -0.864576 10.834797 -1.209741 -12.522963 11.854275 -0.751377 14.087240 4.223449 4.712004 0.512601 -28.720129 -5.084477 0.759758 
-11.616267 -58.610397 38.471066 -170.826767 -177.734436 0.410222 30.839058 -3.368690 -0.261230 -1.319877 4.443358 -0.078066 -31.479437 -4.556477 2.444668 -9.357722 -5.751052 -4.839093 26.000885 28.452141 1.604249 35.992310 -30.930977 -45.000000 -17.036844 5.000000 -45.000000 -23.917469 9.648081 20.836567 -26.632179 -30.000000 1.973484 -47.818932 27.737560 -45.000000 18.835148 -5.000000 -45.000000 9.100943 -30.000000 34.806297 12.264764 5.849850 9.828303 4.087954 -7.025494 -0.844334 10.930410 -1.223577 -12.592299 11.891307 -0.867659 14.091209 4.205212 4.741003 0.540845 -29.178022 -5.066530 0.506248 
-11.628891 -58.613651 38.457649 -170.820374 -177.607498 0.469157 30.827488 -3.491452 -0.309608 -1.280808 4.423828 -0.078067 -31.533220 -4.482278 2.413741 -9.390045 -5.760283 -4.898369 26.047535 28.520384 1.607770 36.044495 -30.949684 -45.000000 -17.014790 5.000000 -45.000000 -23.907375 9.564413 20.863230 -26.664295 -30.000000 1.969954 -47.786316 27.642166 -45.000000 18.791298 -5.000000 -45.000000 9.097942 -30.000000 34.714748 12.138814 5.729693 9.710523 4.117656 -6.951241 -0.836177 10.944613 -1.125697 -12.625873 11.917688 -0.984180 13.975949 4.205862 4.753063 0.570325 -29.506212 -4.990133 0.334975 
-11.641519 -58.616898 38.444225 -170.823898 -177.490341 0.527693 30.826214 -3.622157 -0.362310 -1.240986 4.404297 -0.078096 -31.587070 -4.408077 2.382056 -9.431267 -5.779233 -4.957647 26.103628 28.598373 1.611790 36.091797 -30.974085 -45.000000 -16.992748 5.000000 -45.000000 -23.903385 9.492430 20.885605 -26.690594 -30.000000 1.973686 -47.742569 27.564453 -45.000000 18.747389 -5.000000 -45.000000 9.085626 -30.000000 34.640652 12.038290 5.624555 9.623738 4.126200 -6.900467 -0.855756 10.969083 -1.071615 -12.660142 11.945629 -1.090764 13.832757 4.204481 4.740149 0.638355 -29.851830 -4.925942 0.143228 
-11.654242 -58.620163 38.434067 -170.811050 -177.392746 0.654952 30.867472 -3.650978 -0.417967 -1.266460 4.355464 -0.195059 -31.585527 -4.390270 2.369512 -9.455888 -5.720859 -4.956663 26.141439 28.637367 1.618481 36.094215 -30.963724 -45.000000 -16.959044 5.000000 -45.000000 -23.873060 9.489244 20.951715 -26.673878 -30.000000 1.970157 -47.758278 27.511003 -45.000000 18.749737 -5.000000 -45.000000 9.095085 -30.000000 34.485588 11.921166 5.566091 9.427192 4.193590 -6.859599 -0.851986 10.981307 -0.981678 -12.665751 12.006536 -1.140942 13.306433 4.252350 4.711015 0.592919 -30.144199 -4.453396 0.144333 
-11.666964 -58.623421 38.423904 -170.799103 -177.295181 0.791517 30.899012 -3.679770 -0.473788 -1.301593 4.316389 -0.302999 -31.583986 -4.372463 2.356967 -9.481352 -5.652754 -4.956657 26.179245 28.676361 1.620494 36.088211 -30.968473 -45.000000 -16.930691 5.000000 -45.000000 -23.839563 9.494227 21.013618 -26.656750 -30.000000 1.967127 -47.766357 27.468060 -45.000000 18.757875 -5.000000 -45.000000 9.104271 -30.000000 34.330475 11.775557 5.478108 9.236081 4.250778 -6.789515 -0.856419 10.995507 -0.805393 -12.637827 12.056391 -1.190070 12.789138 4.302107 4.692668 0.557412 -30.432455 -3.967772 0.169201 
-11.677794 -58.628635 38.415752 -170.804764 -177.226898 0.889521 30.937792 -3.710721 -0.478385 -1.295329 4.267548 -0.390756 -31.651152 -4.343521 2.352586 -9.472097 -5.613589 -4.985805 26.208229 28.686108 1.620997 36.118496 -30.947088 -45.000000 -16.890755 5.000000 -45.000000 -23.864340 9.540163 21.059027 -26.725094 -30.000000 1.949420 -47.828648 27.418333 -45.000000 18.804647 -5.000000 -45.000000 9.104074 -30.000000 34.234493 11.649299 5.419672 9.139168 4.309205 -6.740916 -0.841680 11.062416 -0.816352 -12.677938 12.083528 -1.227987 12.311256 4.346859 4.677686 0.570734 -30.656506 -3.585973 0.123866 
-11.687362 -58.635151 38.408939 -170.808899 -177.178131 0.957794 30.955301 -3.732402 -0.458724 -1.288304 4.228474 -0.468779 -31.746498 -4.306417 2.336384 -9.430822 -5.583987 -5.034395 26.237524 28.686111 1.620997 36.159206 -30.914194 -45.000000 -16.833752 5.000000 -45.000000 -23.923933 9.632609 21.072172 -26.837254 -30.000000 1.938002 -47.912045 27.388229 -45.000000 18.867268 -5.000000 -45.000000 9.075718 -30.000000 34.182331 11.511735 5.361584 9.042823 4.367756 -6.691581 -0.797636 11.159975 -0.955778 -12.760839 12.085474 -1.238559 11.915138 4.413702 4.668130 0.594639 -30.808918 -3.327958 0.015711 
